<?xml version="1.0" standalone="no"?>
<!DOCTYPE svg PUBLIC "-//W3C//DTD SVG 20010904//EN"
 "http://www.w3.org/TR/2001/REC-SVG-20010904/DTD/svg10.dtd">
<svg version="1.0" xmlns="http://www.w3.org/2000/svg"
 width="1024.000000pt" height="1024.000000pt" viewBox="0 0 1024.000000 1024.000000"
 preserveAspectRatio="xMidYMid meet">

<g transform="translate(0.000000,1024.000000) scale(0.100000,-0.100000)"
fill="#000000" stroke="none">
<path d="M5085 9049 c-224 -13 -593 -84 -790 -152 -132 -46 -350 -138 -445
-189 -131 -70 -332 -203 -464 -306 -118 -92 -360 -327 -417 -403 -19 -25 -66
-88 -106 -140 -108 -142 -251 -387 -311 -534 -83 -201 -60 -179 -187 -187
-121 -8 -259 -42 -337 -85 -58 -32 -145 -117 -194 -190 -19 -30 -50 -91 -67
-136 l-32 -82 -3 -493 c-3 -554 -4 -550 69 -702 109 -230 339 -377 619 -397
l86 -6 18 -51 c36 -104 177 -375 256 -491 252 -374 518 -641 874 -879 67 -45
154 -99 193 -121 l73 -40 0 -47 c0 -76 19 -145 76 -278 72 -165 129 -257 233
-376 102 -116 227 -207 396 -289 151 -73 290 -115 468 -140 l47 -6 0 -275 0
-276 -77 7 c-369 31 -627 99 -943 247 -583 274 -1034 788 -1193 1358 -54 192
-72 436 -46 642 l10 87 -65 93 c-36 51 -73 103 -82 116 -15 22 -17 22 -35 6
-27 -24 -74 -154 -99 -270 -27 -129 -37 -350 -21 -480 15 -117 79 -375 117
-471 193 -488 540 -891 1024 -1190 308 -190 664 -322 1045 -388 335 -58 779
-39 1153 50 182 43 462 151 642 247 182 97 407 254 561 390 158 140 390 437
483 618 86 166 158 365 196 539 41 185 49 465 19 674 -13 95 -58 226 -90 262
-26 28 -28 29 -35 10 -25 -69 -59 -133 -98 -189 -25 -35 -47 -74 -47 -87 -1
-13 4 -75 10 -137 33 -301 -74 -702 -270 -1022 -85 -139 -127 -194 -244 -323
-329 -365 -771 -613 -1312 -737 -63 -14 -366 -49 -373 -43 -3 3 -6 127 -8 277
l-3 273 68 6 c94 8 261 51 363 95 275 117 507 324 644 575 64 116 136 317 143
397 3 36 10 70 15 76 5 7 58 42 118 79 117 71 313 214 446 326 268 226 601
689 754 1050 l44 104 76 1 c129 2 311 65 424 147 92 67 183 201 233 342 l28
80 3 452 c3 504 -2 572 -56 688 -70 149 -150 236 -282 304 -106 55 -199 82
-313 89 l-99 7 -32 80 c-46 112 -174 363 -241 470 -309 494 -742 861 -1315
1115 -270 120 -643 207 -985 229 -88 6 -162 10 -165 10 -3 -1 -68 -6 -145 -10z
m515 -313 c434 -74 732 -188 1061 -404 166 -110 254 -180 390 -313 211 -207
368 -426 505 -704 205 -417 291 -847 265 -1325 -16 -287 -49 -471 -132 -734
-109 -346 -304 -683 -564 -973 -98 -108 -351 -321 -497 -418 -470 -312 -1105
-472 -1646 -415 -122 13 -366 62 -500 101 -369 107 -738 330 -1055 638 -184
179 -421 500 -532 721 -120 240 -207 517 -239 766 -99 771 16 1339 392 1934
99 157 394 482 490 540 16 10 33 24 37 30 12 19 147 115 246 176 372 225 645
319 1154 398 72 11 533 -3 625 -18z m-3200 -1864 c0 -4 -9 -39 -19 -77 -36
-130 -43 -217 -48 -598 -6 -410 4 -607 37 -746 28 -116 30 -112 -45 -85 -147
53 -223 114 -268 213 -38 84 -46 199 -47 616 0 317 8 409 39 480 37 83 135
168 221 191 51 14 130 18 130 6z m5811 -19 c97 -43 187 -164 209 -281 10 -57
5 -861 -6 -917 -10 -50 -63 -144 -106 -191 -42 -45 -138 -100 -160 -91 -8 4
-5 8 9 12 11 4 23 14 26 23 3 10 8 26 13 36 6 15 4 17 -7 11 -11 -7 -12 -6 -2
6 9 11 10 25 3 49 -5 18 -7 37 -4 42 3 4 0 25 -6 46 -28 90 -51 104 -60 36 -3
-21 -4 166 -2 416 4 483 -1 565 -42 734 l-24 99 58 -6 c31 -3 77 -14 101 -24z
m-1943 -3545 c-20 -91 -78 -160 -144 -172 -21 -4 -111 -27 -199 -51 -203 -56
-280 -69 -545 -90 -281 -23 -412 -13 -719 55 -119 26 -236 56 -261 65 -82 30
-87 31 -71 12 7 -9 11 -17 8 -17 -2 0 -24 25 -47 55 -38 49 -78 150 -66 163 3
2 49 -12 103 -31 130 -46 387 -104 548 -124 195 -23 491 -21 697 6 169 21 377
69 583 134 61 19 113 35 116 36 4 0 3 -18 -3 -41z m-1786 -348 c68 -6 119 -15
143 -26 101 -45 239 -78 371 -88 27 -2 59 -7 71 -9 12 -3 155 -9 318 -12 224
-5 299 -4 310 5 8 7 22 10 31 6 29 -11 148 26 207 66 74 50 74 36 -1 -23 -265
-211 -553 -295 -842 -244 -118 21 -178 40 -300 94 -165 74 -291 168 -380 282
l-34 44 51 -47 c29 -27 53 -48 55 -48z"/>
<path d="M4129 7409 c-246 -20 -467 -121 -652 -298 -93 -89 -142 -157 -209
-293 -70 -141 -101 -282 -101 -453 1 -294 90 -530 279 -733 83 -91 165 -150
285 -206 105 -49 189 -72 311 -86 113 -13 2331 -13 2423 0 150 22 290 74 403
152 190 130 372 418 418 663 24 130 15 337 -21 459 -61 210 -144 357 -275 486
-156 156 -313 243 -535 296 -63 16 -173 17 -1155 19 -597 0 -1124 -2 -1171 -6z
m2297 -188 c64 -12 165 -46 214 -71 106 -54 288 -218 334 -301 17 -30 15 -29
-19 11 -165 194 -353 304 -583 340 -89 15 -2216 14 -2291 0 -105 -20 -265 -87
-355 -150 -85 -58 -197 -193 -268 -321 -51 -91 -97 -249 -108 -364 l-7 -80 -2
70 c-1 95 23 248 52 327 102 269 369 495 648 547 64 12 2322 4 2385 -8z
m-1941 -469 c71 -29 205 -112 180 -112 -5 0 7 -17 27 -37 56 -59 113 -155 133
-225 13 -46 18 -102 19 -210 1 -185 8 -177 -156 -178 -140 0 -155 8 -142 74 5
23 9 84 9 136 0 91 -1 98 -34 148 -56 87 -138 132 -242 132 -114 0 -212 -57
-260 -152 -30 -58 -36 -153 -15 -217 22 -68 20 -85 -11 -102 -32 -17 -211 -16
-243 1 -30 16 -40 50 -46 154 -7 106 9 198 53 299 21 50 48 87 108 149 129
134 242 179 435 174 91 -2 116 -7 185 -34z m1889 13 c155 -55 297 -191 358
-346 19 -46 22 -79 26 -225 l4 -171 -27 -22 c-22 -16 -41 -21 -89 -20 -98 1
-175 14 -193 32 -15 15 -15 20 5 72 77 201 -49 397 -255 394 -79 -1 -115 -12
-175 -55 -91 -64 -130 -202 -94 -328 16 -53 16 -60 1 -76 -22 -24 -83 -32
-193 -24 -130 10 -130 9 -114 203 18 225 50 303 174 422 124 120 238 167 408
168 76 0 109 -4 164 -24z m-3017 -537 c-3 -8 -6 -5 -6 6 -1 11 2 17 5 13 3 -3
4 -12 1 -19z"/>
<path d="M4490 4943 c-23 -9 -60 -45 -76 -75 -81 -156 216 -412 560 -482 287
-60 543 -29 789 96 89 44 143 83 221 157 104 101 129 168 86 239 -37 61 -118
89 -173 61 -12 -7 -57 -45 -99 -85 -61 -58 -98 -83 -180 -123 -149 -71 -213
-86 -388 -85 -126 1 -156 4 -230 27 -117 35 -204 87 -302 177 -46 42 -93 82
-105 88 -22 12 -76 15 -103 5z"/>
<path d="M1970 4965 c0 -7 61 -37 66 -33 2 3 -12 12 -31 21 -19 9 -35 15 -35
12z"/>
<path d="M2080 4914 c0 -3 10 -8 23 -13 34 -13 83 -23 76 -17 -8 8 -99 35 -99
30z"/>
<path d="M8130 4873 c-19 -3 -38 -8 -43 -12 -7 -7 127 5 148 13 12 5 -58 4
-105 -1z"/>
</g>
</svg>
