<?xml version="1.0" standalone="no"?>
<!DOCTYPE svg PUBLIC "-//W3C//DTD SVG 20010904//EN"
 "http://www.w3.org/TR/2001/REC-SVG-20010904/DTD/svg10.dtd">
<svg version="1.0" xmlns="http://www.w3.org/2000/svg"
 width="1200.000000pt" height="1200.000000pt" viewBox="0 0 1200.000000 1200.000000"
 preserveAspectRatio="xMidYMid meet">

<g transform="translate(0.000000,1200.000000) scale(0.100000,-0.100000)"
fill="#000000" stroke="none">
<path d="M1785 9570 c17 -5 43 -12 59 -15 27 -6 29 -17 3 -20 -125 -16 -211
-30 -250 -41 -52 -14 -50 -14 -74 -14 -15 0 -15 -1 0 -18 35 -38 22 -57 -58
-91 -41 -17 -79 -31 -85 -31 -5 0 -17 11 -26 25 -20 31 -26 31 -61 1 -22 -20
-26 -27 -15 -37 20 -21 14 -38 -20 -67 -83 -67 -204 -193 -244 -254 -95 -143
-156 -306 -176 -472 -11 -95 -13 -103 -27 -84 -10 15 -14 49 -13 122 1 108 26
223 78 350 26 63 21 86 -14 67 -32 -17 -102 -174 -134 -298 -30 -118 -32 -367
-5 -488 50 -221 147 -398 310 -563 113 -115 277 -214 473 -285 38 -14 94 -36
125 -50 l56 -25 6 -203 c6 -208 20 -315 56 -437 41 -137 179 -357 310 -495 49
-52 172 -147 189 -147 6 0 12 -4 14 -8 3 -9 194 -103 293 -145 135 -57 542
-207 564 -207 6 0 19 -4 29 -10 9 -5 53 -21 97 -35 44 -15 89 -30 100 -35 28
-13 254 -90 290 -100 51 -13 220 -77 261 -98 53 -27 98 -77 126 -137 19 -41
23 -67 23 -145 0 -85 -3 -102 -29 -154 -80 -163 -233 -274 -431 -312 -143 -28
-399 -23 -535 10 -164 39 -217 61 -309 129 -107 79 -188 179 -249 307 -36 75
-46 83 -89 76 -50 -10 -443 -116 -908 -246 -82 -23 -174 -48 -202 -56 -29 -8
-79 -21 -111 -30 -31 -8 -68 -18 -82 -21 -39 -9 -60 -33 -60 -69 0 -47 63
-256 107 -354 48 -107 112 -223 130 -233 7 -4 13 -14 13 -21 0 -7 9 -21 20
-31 11 -10 20 -22 20 -28 0 -5 9 -19 19 -31 11 -11 50 -56 88 -99 64 -74 184
-183 263 -238 19 -13 37 -26 40 -29 29 -29 264 -170 283 -170 7 0 17 -4 23 -9
25 -24 357 -154 439 -171 365 -77 513 -94 860 -94 208 -1 301 3 405 17 163 22
321 55 335 69 7 8 5 9 -7 5 -9 -3 -43 -8 -75 -11 l-58 -5 45 13 c25 7 68 18
95 24 97 20 237 67 385 128 24 11 48 19 52 19 4 0 13 6 20 12 6 7 17 13 23 13
6 0 35 13 65 30 30 16 69 37 85 45 17 9 41 23 55 33 14 9 40 26 58 37 17 11
32 23 32 28 0 4 6 7 13 7 8 0 22 9 32 20 10 11 24 20 31 20 8 0 19 9 26 20 7
11 17 20 23 20 6 0 17 8 26 18 8 9 28 26 43 37 38 27 174 162 207 205 15 19
35 44 45 55 66 71 129 160 241 340 66 105 164 344 211 515 48 172 89 641 63
715 -9 26 -10 21 -6 -30 4 -62 -7 -133 -27 -172 -9 -18 -20 -23 -47 -23 -20 0
-46 -7 -58 -15 -19 -13 -22 -13 -34 2 -8 9 -14 19 -14 22 0 3 -8 5 -18 3 -11
-1 -42 10 -70 24 -68 35 -176 74 -203 74 -12 0 -41 11 -65 24 -24 13 -69 29
-99 36 -82 18 -86 19 -110 40 -12 11 -26 17 -31 14 -5 -2 -19 2 -31 10 -13 8
-38 17 -55 21 -18 4 -33 10 -33 15 0 8 -118 33 -135 29 -34 -9 -168 28 -159
43 3 4 1 8 -5 8 -5 0 -11 -6 -14 -12 -3 -9 -10 -8 -26 6 -18 16 -26 18 -59 8
-37 -10 -98 -6 -107 7 -6 11 -187 4 -272 -10 -72 -12 -143 -6 -143 11 0 6 -11
10 -25 10 -15 0 -36 11 -51 27 -14 15 -33 27 -42 27 -58 -1 -219 -17 -242 -24
-33 -9 -82 -2 -74 12 3 5 -3 12 -15 15 -12 3 -21 12 -21 19 0 18 -44 18 -105
2 -38 -10 -48 -10 -55 2 -6 9 -35 15 -97 17 -112 5 -119 8 -102 31 8 11 8 13
1 6 -9 -7 -33 -7 -78 -1 -55 8 -67 7 -77 -7 -9 -11 -30 -16 -77 -17 -88 -2
-90 -1 -90 16 0 12 -7 14 -27 9 -16 -4 -31 -12 -35 -18 -5 -8 -8 -7 -8 2 0 6
-5 12 -11 12 -5 0 -8 -4 -5 -8 2 -4 0 -14 -5 -22 -8 -13 -10 -13 -18 -1 -5 8
-8 22 -6 32 2 10 -1 22 -7 25 -7 5 -9 0 -6 -13 3 -12 3 -25 -1 -31 -10 -16
-53 21 -56 49 -1 13 -3 27 -4 32 -2 12 -41 8 -41 -5 0 -6 3 -8 7 -5 3 4 12 2
19 -4 10 -8 11 -16 3 -31 -11 -20 -11 -20 -30 1 -10 11 -19 27 -19 36 0 8 -4
15 -10 15 -5 0 -10 -4 -10 -10 0 -5 -5 -10 -11 -10 -19 0 -4 34 21 47 20 10
22 13 8 18 -10 4 -21 4 -26 1 -6 -3 -24 -3 -41 0 -25 5 -29 9 -20 20 9 11 7
14 -12 14 -13 0 -31 5 -39 10 -12 7 -10 11 10 19 22 8 19 10 -24 10 -40 1 -47
4 -42 17 3 9 6 18 6 20 0 2 9 4 20 4 29 0 25 17 -5 22 -17 4 -25 1 -25 -8 0
-19 -49 -18 -56 1 -3 8 -21 17 -40 21 -24 4 -34 12 -34 25 0 11 7 19 16 19 8
0 13 4 9 9 -3 5 -19 8 -35 6 -22 -3 -30 0 -30 11 0 11 6 13 20 9 11 -4 20 -2
20 4 0 6 -10 11 -21 11 -17 0 -20 4 -16 22 4 12 1 28 -4 35 -17 20 -1 33 43
33 23 0 38 3 34 7 -4 4 -24 6 -44 5 -27 -2 -33 0 -22 7 8 5 18 7 22 5 4 -3 8
1 8 9 0 8 -10 18 -22 22 -14 4 -18 8 -10 12 17 7 15 36 -2 30 -8 -3 -21 4 -30
18 -14 21 -14 24 1 29 9 4 13 9 10 13 -4 3 -14 0 -22 -7 -13 -11 -19 -10 -33
4 -14 14 -15 18 -3 25 17 11 5 32 -14 24 -10 -3 -15 1 -15 12 0 12 5 15 19 10
21 -6 40 13 23 24 -5 3 -12 17 -13 31 -3 19 -11 26 -34 30 -16 3 -30 10 -30
15 0 6 -3 9 -7 7 -5 -1 -8 5 -8 13 0 8 6 15 14 15 23 0 26 26 5 43 -25 22 -24
32 6 55 15 12 21 23 15 27 -5 3 -10 1 -10 -4 0 -6 -12 -10 -27 -10 -16 1 -21
3 -11 6 21 5 32 33 13 33 -8 0 -15 7 -15 16 0 10 -6 14 -14 11 -8 -3 -20 0
-26 8 -9 11 -7 12 12 8 13 -3 31 -12 40 -21 15 -13 19 -12 35 4 17 17 17 17 1
11 -13 -5 -18 -1 -18 12 0 12 10 21 28 26 15 4 21 10 15 12 -7 3 -13 13 -13
24 0 12 5 16 14 13 8 -3 17 -1 21 5 3 7 -2 11 -14 11 -12 0 -21 4 -21 9 0 5
-10 11 -22 13 -20 4 -18 6 12 15 24 8 29 12 15 13 -11 1 -24 2 -28 1 -4 -1
-10 6 -13 14 -3 8 -11 12 -16 9 -6 -4 -14 0 -19 7 -12 19 -11 32 1 24 6 -3 10
1 10 10 0 9 -4 14 -9 11 -5 -4 -11 0 -14 6 -3 11 -9 11 -26 0 -18 -10 -21 -10
-21 4 0 8 -5 12 -11 9 -6 -4 -20 2 -32 13 -15 13 -34 19 -59 18 -24 -1 -39 3
-43 13 -4 11 3 13 40 7 26 -3 52 -12 60 -20 8 -7 25 -11 38 -9 13 3 61 -7 108
-21 144 -44 399 -106 433 -106 19 0 40 8 49 18 15 17 57 136 165 477 28 88 67
212 87 275 63 196 123 449 136 571 16 154 2 273 -52 430 -21 63 -39 120 -39
125 0 8 107 65 210 112 101 45 310 111 403 128 21 3 36 9 33 12 -17 17 -343
-78 -550 -161 -122 -48 -130 -50 -140 -33 -35 60 -161 219 -212 267 -155 145
-329 238 -537 285 -71 16 -351 29 -302 14z m125 -276 c28 -42 49 -83 46 -90
-3 -9 1 -14 13 -14 10 0 30 -17 45 -40 14 -22 28 -40 30 -40 2 0 35 15 72 33
60 28 79 32 149 32 66 0 90 -5 139 -27 108 -51 235 -207 286 -353 17 -47 21
-77 17 -140 -4 -87 -24 -138 -77 -199 -32 -36 -38 -56 -17 -56 7 0 22 -6 32
-14 18 -13 18 -16 5 -42 -12 -22 -12 -28 -2 -32 24 -8 73 -54 87 -83 32 -61 9
-144 -53 -193 -14 -12 -54 -37 -88 -57 -33 -20 -81 -50 -106 -67 -31 -21 -49
-28 -59 -21 -22 14 -31 11 -24 -11 5 -14 -3 -25 -32 -44 -30 -20 -42 -36 -51
-72 -8 -29 -28 -62 -56 -92 l-43 -46 -41 32 c-35 28 -41 30 -53 16 -7 -8 -33
-27 -58 -42 -25 -14 -110 -68 -188 -119 -78 -51 -145 -93 -150 -93 -4 0 -48
63 -96 140 -49 77 -93 140 -98 140 -5 0 -21 -7 -34 -16 -23 -15 -25 -15 -67
43 -24 33 -77 110 -118 171 -41 62 -78 112 -82 112 -5 0 -16 -16 -25 -35 -9
-19 -23 -35 -30 -35 -11 0 -260 124 -271 135 -2 1 36 80 83 173 90 179 107
201 210 263 29 17 35 25 23 27 -9 2 -34 -8 -55 -22 -21 -14 -43 -26 -49 -26
-14 0 -134 174 -134 195 0 7 8 16 18 20 9 3 33 18 52 34 l34 29 -25 38 c-57
87 -61 76 50 149 55 36 105 65 111 65 6 0 14 -8 18 -17 13 -31 54 -93 61 -93
3 0 23 11 43 25 36 25 36 25 21 56 -8 17 -22 33 -30 36 -16 6 168 133 193 133
7 0 28 13 46 28 18 15 74 54 123 86 50 32 101 66 115 76 14 11 28 19 31 19 4
1 30 -33 59 -75z m-1040 -324 c0 -5 -5 -10 -11 -10 -5 0 -7 5 -4 10 3 6 8 10
11 10 2 0 4 -4 4 -10z m920 -1724 c0 -3 -4 -8 -10 -11 -5 -3 -10 -1 -10 4 0 6
5 11 10 11 6 0 10 -2 10 -4z m290 -210 c0 -3 -4 -8 -10 -11 -5 -3 -10 -1 -10
4 0 6 5 11 10 11 6 0 10 -2 10 -4z m60 -414 c0 -13 -12 -22 -22 -16 -10 6 -1
24 13 24 5 0 9 -4 9 -8z m70 -338 c0 -8 -5 -12 -10 -9 -6 4 -8 11 -5 16 9 14
15 11 15 -7z m863 -401 c-7 -2 -19 -2 -25 0 -7 3 -2 5 12 5 14 0 19 -2 13 -5z
m-248 -23 c-3 -5 -13 -6 -21 -3 -12 4 -13 8 -3 14 15 9 32 2 24 -11z m470 0
c-3 -5 -10 -10 -16 -10 -5 0 -9 5 -9 10 0 6 7 10 16 10 8 0 12 -4 9 -10z
m-400 -36 c-10 -7 -22 -11 -26 -8 -14 8 14 32 30 26 11 -4 10 -8 -4 -18z m40
6 c3 -5 1 -10 -4 -10 -6 0 -11 5 -11 10 0 6 2 10 4 10 3 0 8 -4 11 -10z"/>
<path d="M1896 9137 c3 -10 9 -15 12 -12 3 3 0 11 -7 18 -10 9 -11 8 -5 -6z"/>
<path d="M1850 8875 c-25 -14 -50 -25 -57 -25 -29 0 -10 -16 30 -26 23 -6 50
-14 60 -19 15 -6 17 -1 17 44 0 28 -1 51 -2 51 -2 -1 -23 -12 -48 -25z"/>
<path d="M2250 8814 c0 -9 77 -119 94 -133 27 -23 18 0 -30 71 -39 58 -64 83
-64 62z"/>
<path d="M1470 8710 c-8 -5 -12 -12 -9 -15 4 -3 12 1 19 10 14 17 11 19 -10 5z"/>
<path d="M1457 8344 c-4 -4 6 -23 22 -43 15 -20 54 -75 86 -123 32 -49 61 -88
65 -88 4 0 10 10 13 23 2 12 17 56 33 98 l28 76 -23 31 -22 32 -98 0 c-54 0
-101 -3 -104 -6z"/>
<path d="M2217 8288 c-2 -29 -4 -54 -3 -56 2 -1 13 7 26 18 28 24 31 24 56 5
27 -20 31 -19 42 13 15 45 14 47 -35 53 -26 3 -55 9 -64 13 -14 6 -17 -2 -22
-46z"/>
<path d="M1730 7931 c0 -5 6 -14 14 -20 10 -8 16 -8 25 2 6 8 8 17 4 20 -9 10
-43 8 -43 -2z"/>
<path d="M1727 7834 c-8 -8 3 -34 14 -34 5 0 9 9 9 20 0 19 -11 26 -23 14z"/>
<path d="M7597 9546 c-144 -43 -299 -170 -357 -293 -42 -88 -59 -150 -66 -248
-5 -74 -3 -87 31 -180 31 -88 48 -121 104 -211 12 -18 7 -29 -60 -115 -145
-185 -183 -298 -184 -544 0 -77 4 -183 9 -235 l8 -95 -53 -70 c-161 -212 -335
-335 -589 -415 l-85 -27 2 -49 c2 -27 24 -137 50 -244 50 -204 67 -240 114
-240 33 0 339 161 464 245 125 84 233 173 287 238 36 44 157 222 210 312 37
62 61 60 168 -11 170 -113 248 -197 420 -453 108 -160 102 -159 253 -58 207
139 317 218 317 228 0 23 -87 180 -163 292 -132 197 -298 347 -509 463 -49 26
-88 50 -88 54 0 3 33 11 73 17 167 27 324 86 447 168 90 60 220 184 220 210 0
11 -16 53 -35 93 l-34 72 55 0 c35 0 56 -4 58 -12 13 -51 106 -567 120 -663 6
-46 -8 -28 -19 24 -4 19 -14 48 -22 65 l-14 31 6 -30 c4 -16 11 -54 16 -84 l8
-54 -54 -59 c-53 -57 -68 -89 -82 -173 -3 -22 -12 -48 -19 -59 -12 -17 -14
-15 -37 20 -25 39 -87 104 -87 91 0 -4 21 -35 47 -69 67 -91 93 -109 93 -65 0
49 16 48 39 -3 24 -53 85 -113 138 -136 18 -8 56 -14 85 -14 l53 0 -61 -61
c-57 -57 -62 -60 -87 -48 -15 7 -29 10 -31 8 -5 -5 21 -109 29 -118 3 -3 8 5
12 17 4 18 10 9 28 -43 24 -71 74 -133 131 -160 64 -30 168 -13 221 37 28 27
66 122 64 165 -1 46 -35 108 -88 159 -29 28 -40 45 -31 48 50 15 728 69 728
58 0 -2 -14 -20 -31 -40 -63 -71 -73 -134 -38 -226 34 -93 121 -144 226 -133
105 11 170 80 180 194 5 53 2 63 -30 118 -19 33 -45 69 -56 79 -12 11 -21 22
-21 26 0 4 33 13 73 20 102 18 107 21 107 81 0 61 -21 105 -54 113 -14 3 -87
2 -163 -4 -76 -5 -190 -12 -253 -15 -133 -5 -93 2 165 30 157 17 235 32 235
45 0 26 -35 40 -98 40 -59 0 -318 -33 -457 -59 -27 -5 -97 -17 -155 -26 -110
-18 -160 -32 -160 -46 0 -4 10 -10 23 -12 12 -2 5 -5 -18 -6 -44 -1 -305 -27
-372 -37 -39 -6 -46 -3 -73 26 l-31 33 37 38 c20 21 49 42 63 48 37 15 308 74
1096 237 291 60 308 70 318 192 3 39 11 81 17 92 15 28 36 108 70 264 27 122
27 131 12 162 -19 41 -8 40 -252 15 -102 -11 -268 -27 -370 -36 -102 -9 -275
-25 -385 -37 -110 -11 -254 -24 -320 -28 -66 -5 -142 -13 -169 -19 -26 -6 -59
-8 -73 -5 -28 7 -56 58 -77 136 -8 29 -17 61 -22 72 -8 20 -3 20 -181 -5 l-93
-13 0 -53 c0 -29 -4 -53 -8 -53 -4 0 -29 25 -56 55 -26 30 -53 55 -59 55 -7 0
-59 -32 -117 -71 -199 -134 -304 -172 -500 -181 l-75 -3 -3 30 -3 30 90 17
c191 37 321 130 416 297 87 155 98 261 43 416 -71 198 -102 245 -212 317 -125
81 -283 100 -439 54z m326 -47 c133 -67 242 -208 251 -326 11 -125 -92 -393
-150 -393 -8 0 -12 -4 -9 -10 3 -5 -3 -10 -14 -10 -12 0 -21 4 -21 9 0 5 -3
17 -7 27 -4 12 -3 15 6 10 7 -5 1 10 -13 33 -14 22 -26 45 -26 51 0 5 -6 10
-14 10 -9 0 -13 9 -12 25 2 14 -3 36 -10 51 -7 14 -15 35 -16 47 -2 12 -6 27
-10 33 -4 5 -10 34 -14 62 -3 29 -11 52 -16 52 -5 0 -6 5 -3 10 4 6 2 16 -3
23 -6 7 -13 28 -17 47 -3 19 -7 42 -9 50 -1 8 -9 28 -16 43 -13 26 -12 30 4
39 13 8 15 13 5 24 -8 10 -9 17 0 28 8 10 5 21 -13 49 -13 19 -22 38 -19 41
12 11 106 -5 146 -25z m830 -861 c9 -7 23 -38 31 -68 20 -79 34 -112 54 -126
23 -18 81 -17 203 1 55 8 104 13 109 10 5 -3 73 1 152 10 300 31 345 35 403
35 33 0 96 4 140 9 44 6 130 12 190 15 61 3 161 8 223 12 61 3 112 2 112 -3
-1 -16 -55 -60 -82 -67 -16 -3 -28 -11 -28 -16 0 -6 -11 -10 -25 -10 -15 0
-25 -6 -25 -14 0 -14 -90 -76 -110 -76 -5 0 -14 -8 -20 -17 -8 -13 -13 -14
-16 -5 -8 18 -25 14 -22 -5 2 -12 -3 -18 -14 -17 -10 1 -20 -6 -23 -16 -4 -13
-19 -19 -56 -22 -28 -3 -54 -9 -58 -14 -3 -5 -13 -10 -21 -11 -8 -1 -78 -13
-155 -26 -77 -14 -176 -28 -220 -30 -44 -3 -91 -8 -105 -11 -55 -12 -209 -15
-216 -5 -4 7 -23 8 -49 4 -24 -3 -46 -2 -49 3 -3 5 -24 12 -46 16 -22 3 -40
11 -40 16 0 6 -5 10 -11 10 -7 0 -34 13 -60 30 -27 16 -49 27 -49 23 0 -4 -7
3 -16 15 -17 25 -59 46 -85 43 -19 -2 -43 46 -64 131 -25 95 -30 101 -77 95
-52 -7 -68 0 -68 29 0 28 22 41 92 53 76 12 82 12 101 -1z m-310 -143 c20 -41
32 -75 26 -75 -5 0 -7 -4 -4 -10 11 -18 -6 -10 -30 15 -14 13 -25 28 -25 33 0
6 -11 17 -25 26 -22 14 -25 15 -25 1 0 -13 -3 -13 -20 -3 -18 11 -18 13 -3 19
12 4 13 8 4 13 -9 6 -5 14 14 32 14 13 32 24 38 24 7 0 29 -34 50 -75z m1185
-972 c-16 -2 -40 -2 -55 0 -16 2 -3 4 27 4 30 0 43 -2 28 -4z"/>
<path d="M3720 9239 c-69 -10 -138 -23 -155 -29 l-30 -10 30 4 c220 31 271 40
280 47 5 5 7 9 5 8 -3 -1 -61 -9 -130 -20z"/>
<path d="M3878 9253 c12 -2 30 -2 40 0 9 3 -1 5 -23 4 -22 0 -30 -2 -17 -4z"/>
<path d="M4625 9242 c31 -14 100 -23 89 -12 -6 6 -32 12 -59 15 -33 4 -43 3
-30 -3z"/>
<path d="M4800 9206 c19 -7 53 -16 75 -19 36 -5 34 -4 -15 13 -62 21 -116 26
-60 6z"/>
<path d="M4920 9176 c0 -2 31 -14 70 -25 38 -12 77 -24 87 -28 10 -3 15 -3 12
1 -16 18 -169 65 -169 52z"/>
<path d="M5124 9101 c3 -5 16 -11 28 -14 22 -6 22 -5 4 8 -22 17 -40 20 -32 6z"/>
<path d="M5180 9076 c0 -2 7 -7 16 -10 8 -3 12 -2 9 4 -6 10 -25 14 -25 6z"/>
<path d="M5439 8931 c19 -17 37 -28 40 -26 5 6 -23 30 -54 46 -11 5 -5 -4 14
-20z"/>
<path d="M5500 8890 c0 -5 6 -13 14 -17 8 -4 30 -23 50 -41 20 -18 36 -28 36
-24 0 10 -85 92 -95 92 -3 0 -5 -4 -5 -10z"/>
<path d="M5610 8802 c0 -8 86 -92 108 -106 25 -15 11 2 -48 57 -33 32 -60 54
-60 49z"/>
<path d="M5740 8673 c0 -3 31 -49 69 -102 38 -53 88 -129 111 -169 49 -83 67
-92 21 -11 -17 30 -35 64 -41 77 -6 13 -17 30 -25 38 -8 9 -15 21 -15 28 0 7
-16 29 -35 50 -19 21 -35 40 -35 42 0 2 -11 14 -25 28 -14 14 -25 22 -25 19z"/>
<path d="M5971 8315 c0 -5 6 -21 14 -35 8 -14 14 -20 14 -15 0 6 -6 21 -14 35
-8 14 -14 21 -14 15z"/>
<path d="M5990 8140 l-35 -19 31 3 c35 3 54 13 54 27 0 13 -10 11 -50 -11z"/>
<path d="M3800 8085 c-108 -15 -145 -27 -254 -81 -80 -40 -197 -136 -183 -150
4 -4 19 4 33 19 14 15 29 27 34 27 14 0 12 -34 -2 -48 -8 -8 -9 -12 -1 -12 6
0 18 6 25 13 20 21 68 50 68 42 0 -14 -64 -96 -89 -112 -24 -15 -24 -17 -6
-23 16 -5 33 7 81 56 161 167 482 225 779 139 204 -58 281 -129 369 -338 12
-28 23 -39 46 -43 16 -4 30 -11 30 -16 0 -15 30 -6 300 92 135 49 335 121 445
160 558 200 638 231 650 251 10 15 -57 6 -125 -17 -25 -9 -59 -16 -77 -17 -17
-1 -29 -5 -27 -9 6 -10 -10 -18 -47 -22 -18 -2 -35 -9 -37 -15 -2 -6 -20 -13
-40 -17 -20 -4 -44 -12 -52 -19 -8 -7 -35 -19 -60 -28 -25 -8 -92 -34 -150
-57 -58 -23 -136 -53 -175 -67 -38 -13 -79 -29 -90 -34 -39 -16 -411 -157
-447 -169 -60 -19 -80 -9 -35 18 21 12 44 22 51 22 19 0 43 30 25 30 -10 1 -9
3 3 10 9 6 27 9 40 9 34 -3 49 3 73 28 16 16 25 19 32 12 14 -14 33 -3 33 17
0 12 7 14 30 9 19 -4 30 -3 30 4 0 6 9 11 20 11 11 0 23 7 27 16 3 8 15 14 27
13 40 -3 48 1 42 17 -4 10 0 15 12 13 28 -3 102 13 102 22 0 5 13 9 29 9 17 0
33 5 36 10 4 6 15 8 26 5 13 -5 19 -2 19 10 0 9 5 13 11 10 14 -9 69 14 69 29
0 6 5 4 10 -4 7 -12 12 -12 22 -2 6 6 21 12 33 12 12 0 25 4 31 8 5 5 29 14
54 22 48 14 152 60 160 72 3 3 18 10 33 13 33 9 36 25 5 26 l-23 0 23 9 c12 5
22 12 22 15 0 9 -30 -1 -130 -40 -47 -18 -116 -45 -155 -58 -73 -26 -101 -37
-172 -68 -24 -11 -51 -19 -61 -19 -10 0 -22 -4 -27 -8 -6 -5 -41 -20 -80 -34
-38 -15 -135 -51 -215 -81 -296 -113 -335 -127 -341 -127 -4 0 -26 38 -49 85
-95 191 -264 304 -525 349 -106 19 -185 19 -315 1z m1995 -44 c3 -5 1 -12 -5
-16 -5 -3 -10 1 -10 9 0 18 6 21 15 7z m-1975 -20 c0 -7 -73 -31 -96 -31 -15
0 6 12 43 25 46 17 53 18 53 6z m-145 -41 c-3 -5 -11 -10 -16 -10 -6 0 -7 5
-4 10 3 6 11 10 16 10 6 0 7 -4 4 -10z"/>
<path d="M8670 8063 c-23 -6 -41 -50 -25 -63 10 -8 18 -3 35 20 22 32 18 50
-10 43z"/>
<path d="M8495 7865 c32 -26 45 -31 45 -17 0 15 -36 42 -56 42 -16 0 -14 -4
11 -25z"/>
<path d="M3320 7795 c-58 -70 -49 -300 14 -376 34 -40 100 -90 146 -112 51
-24 279 -103 645 -224 299 -98 513 -172 560 -192 11 -5 65 -28 120 -51 246
-104 481 -255 635 -410 119 -118 174 -193 233 -319 24 -49 43 -79 45 -69 3 17
-66 163 -112 237 -15 22 -26 43 -26 46 0 9 -97 128 -122 150 -13 12 -45 38
-73 60 -27 21 -54 44 -60 50 -5 6 -44 36 -85 65 -41 30 -76 58 -78 62 -2 5 -8
8 -14 8 -5 0 -24 11 -42 25 -18 14 -38 25 -44 25 -7 0 -12 3 -12 8 0 4 -10 12
-23 18 -12 6 -67 35 -122 63 -60 31 -109 50 -122 48 -14 -3 -23 1 -23 8 0 14
-78 37 -93 28 -6 -3 -16 2 -23 12 -7 10 -30 19 -51 21 -52 5 -65 8 -88 21 -11
5 -35 13 -53 17 -19 3 -48 12 -65 20 -40 17 -124 45 -157 52 -14 2 -50 13 -80
23 -30 10 -77 25 -105 34 -387 120 -446 139 -531 172 -166 66 -234 178 -213
351 6 42 16 92 24 110 15 37 14 42 -5 19z"/>
<path d="M4180 7650 c-13 -8 -13 -10 2 -10 9 0 25 -3 35 -7 16 -6 16 -5 4 10
-16 20 -20 20 -41 7z"/>
<path d="M3392 7515 c0 -16 2 -22 5 -12 2 9 2 23 0 30 -3 6 -5 -1 -5 -18z"/>
<path d="M4985 7230 c8 -13 65 -43 71 -38 2 3 -14 14 -37 26 -22 12 -37 17
-34 12z"/>
<path d="M5094 7175 c15 -8 38 -15 49 -15 33 0 7 17 -38 24 l-40 7 29 -16z"/>
<path d="M2180 6966 c0 -9 5 -16 10 -16 6 0 10 4 10 9 0 6 -4 13 -10 16 -5 3
-10 -1 -10 -9z"/>
<path d="M9511 6509 c-258 -55 -450 -183 -603 -400 l-63 -90 -20 27 c-142 194
-190 242 -305 303 -142 76 -366 97 -554 52 -203 -48 -406 -181 -516 -335 -45
-63 -57 -67 -52 -16 3 27 0 40 -8 40 -21 0 -4 140 18 156 15 11 14 14 -18 27
-28 12 -56 13 -140 6 -58 -5 -251 -21 -430 -35 -316 -25 -339 -29 -340 -60 0
-6 -11 -87 -25 -180 -14 -93 -34 -227 -45 -299 -24 -162 -113 -748 -140 -915
-11 -69 -44 -282 -74 -475 -133 -844 -128 -803 -98 -821 13 -8 117 -9 382 -2
497 12 590 19 603 40 9 13 6 21 -11 35 l-23 18 46 300 c25 165 52 343 60 395
8 52 30 201 50 330 68 451 77 506 101 627 23 119 40 170 72 206 29 33 32 17 7
-33 -14 -27 -25 -57 -25 -67 0 -10 15 15 34 56 41 93 79 139 144 174 70 38
173 47 218 19 83 -53 87 -157 26 -577 -188 -1276 -211 -1445 -205 -1460 3 -9
17 -18 31 -22 42 -10 980 21 992 33 7 7 8 19 2 35 -6 15 -5 56 4 114 8 50 23
158 34 240 116 844 181 1275 217 1425 18 75 61 159 73 141 4 -8 19 6 40 38 64
100 137 136 270 130 183 -9 191 -75 91 -794 -196 -1418 -182 -1298 -153 -1314
16 -8 153 -7 529 4 279 8 519 17 532 20 19 5 22 11 18 33 -3 15 3 86 13 157
10 72 26 186 35 255 9 69 25 188 35 265 11 77 37 280 60 450 22 171 49 371 60
445 27 191 48 369 55 480 4 52 12 101 18 108 27 34 -17 225 -80 344 -39 75
-142 193 -208 238 -70 48 -176 97 -260 121 -117 32 -344 36 -474 8z m368 -44
c36 -9 71 -21 78 -27 14 -11 18 -30 6 -25 -5 1 -9 -1 -10 -5 -2 -5 -1 -7 0 -5
2 1 11 -4 19 -11 13 -10 16 -9 21 8 6 25 20 21 107 -36 92 -61 120 -88 121
-121 0 -15 3 -22 6 -15 8 20 33 -6 33 -34 0 -17 4 -22 15 -17 9 3 15 2 14 -3
-2 -10 7 -40 22 -66 6 -12 4 -20 -9 -28 -15 -10 -15 -11 4 -7 19 4 21 0 23
-47 3 -93 5 -116 12 -116 14 0 8 -108 -6 -120 -8 -7 -15 -22 -15 -34 0 -12 -5
-27 -12 -34 -9 -9 -9 -12 1 -12 7 0 9 -5 4 -12 -4 -7 -6 -22 -4 -33 2 -16 0
-18 -10 -7 -18 17 -30 15 -23 -3 4 -8 16 -15 29 -15 18 0 22 -4 18 -20 -3 -11
-10 -20 -15 -20 -5 0 -7 -4 -4 -9 3 -5 0 -11 -8 -14 -8 -3 -16 -16 -18 -29 -2
-13 -9 -22 -16 -21 -6 2 -12 -2 -12 -8 0 -5 -5 -7 -11 -3 -6 3 -15 0 -20 -7
-7 -9 -8 -2 -4 22 5 26 2 39 -9 48 -9 8 -16 20 -16 27 0 8 -5 14 -11 14 -7 0
-9 11 -6 27 5 28 5 28 -12 7 -15 -19 -19 -19 -38 -7 -14 10 -23 11 -28 4 -3
-6 2 -11 12 -12 14 0 13 -2 -6 -10 -19 -8 -21 -12 -11 -24 7 -8 9 -15 5 -15
-4 0 -16 11 -27 25 -20 26 -72 58 -80 50 -3 -3 -4 5 -4 18 1 18 -4 21 -26 19
-19 -2 -30 3 -37 17 -8 13 -17 18 -29 14 -14 -5 -13 -3 3 11 11 10 15 15 8 12
-6 -4 -16 2 -22 11 -8 14 -11 15 -12 3 -1 -8 -1 -21 0 -27 1 -7 -4 -13 -10
-13 -7 0 -10 3 -6 6 3 3 -7 20 -23 38 -16 17 -35 44 -41 61 -6 16 -15 39 -20
50 -4 11 -10 43 -11 70 -3 32 -12 62 -26 82 -20 28 -38 67 -40 86 -2 15 -31
37 -49 36 -10 0 -13 -3 -5 -6 14 -6 17 -53 2 -53 -5 0 -11 7 -11 15 -1 8 -2
21 -3 28 -1 6 1 22 6 35 6 18 4 22 -15 23 -21 0 -21 1 3 11 15 6 20 12 13 15
-20 7 -15 19 8 20 26 2 33 8 25 22 -5 7 -15 7 -32 1 -22 -9 -25 -7 -22 7 2 11
12 18 28 18 29 0 45 16 27 27 -8 5 -7 8 5 8 9 0 21 7 26 16 6 10 12 12 16 6 4
-6 19 -5 43 3 32 11 38 17 36 40 -1 17 2 25 10 22 7 -2 11 -11 9 -18 -2 -8 0
-11 4 -7 4 5 9 19 10 33 3 27 -2 30 -91 40 -27 3 -51 8 -54 11 -11 11 141 2
198 -11z m-105 -50 c-4 -8 -10 -15 -15 -15 -4 0 -6 7 -3 15 4 8 10 15 15 15 4
0 6 -7 3 -15z m3 -41 c-3 -3 -12 -4 -19 -1 -8 3 -5 6 6 6 11 1 17 -2 13 -5z
m-157 -194 c0 -5 -2 -10 -4 -10 -3 0 -8 5 -11 10 -3 6 -1 10 4 10 6 0 11 -4
11 -10z m-746 -652 c-9 -18 -20 -44 -25 -58 -6 -20 -7 -21 -8 -5 -1 24 37 110
45 102 3 -3 -2 -20 -12 -39z m1316 22 c0 -11 -2 -20 -4 -20 -2 0 -6 9 -9 20
-3 11 -1 20 4 20 5 0 9 -9 9 -20z m117 -12 c-3 -7 -5 -2 -5 12 0 14 2 19 5 13
2 -7 2 -19 0 -25z m130 -270 c-3 -7 -5 -2 -5 12 0 14 2 19 5 13 2 -7 2 -19 0
-25z m-30 -230 c-3 -7 -5 -2 -5 12 0 14 2 19 5 13 2 -7 2 -19 0 -25z m-10 -55
c-3 -10 -5 -4 -5 12 0 17 2 24 5 18 2 -7 2 -21 0 -30z m-29 -240 c-11 -105
-19 -117 -12 -19 5 71 9 96 18 96 1 0 -2 -35 -6 -77z m-41 -295 c-2 -13 -4 -3
-4 22 0 25 2 35 4 23 2 -13 2 -33 0 -45z m-30 -240 c-3 -7 -5 -2 -5 12 0 14 2
19 5 13 2 -7 2 -19 0 -25z"/>
<path d="M9840 6429 c0 -5 5 -7 10 -4 6 3 10 8 10 11 0 2 -4 4 -10 4 -5 0 -10
-5 -10 -11z"/>
<path d="M9845 6390 c-3 -5 1 -10 9 -10 9 0 16 5 16 10 0 6 -4 10 -9 10 -6 0
-13 -4 -16 -10z"/>
<path d="M9695 6300 c-3 -5 -2 -10 4 -10 5 0 13 5 16 10 3 6 2 10 -4 10 -5 0
-13 -4 -16 -10z"/>
<path d="M9650 6206 c0 -9 5 -16 10 -16 6 0 10 4 10 9 0 6 -4 13 -10 16 -5 3
-10 -1 -10 -9z"/>
<path d="M10320 5839 c0 -11 5 -17 10 -14 6 3 10 13 10 21 0 8 -4 14 -10 14
-5 0 -10 -9 -10 -21z"/>
<path d="M2350 6190 c0 -5 7 -10 15 -10 8 0 15 5 15 10 0 6 -7 10 -15 10 -8 0
-15 -4 -15 -10z"/>
<path d="M7402 6120 c0 -14 2 -19 5 -12 2 6 2 18 0 25 -3 6 -5 1 -5 -13z"/>
<path d="M2470 6120 c0 -5 5 -10 11 -10 5 0 7 5 4 10 -3 6 -8 10 -11 10 -2 0
-4 -4 -4 -10z"/>
<path d="M2540 6068 c0 -19 2 -20 10 -8 13 19 13 30 0 30 -5 0 -10 -10 -10
-22z"/>
<path d="M5724 5997 c11 -47 28 -82 33 -70 3 7 -1 29 -7 48 -14 42 -36 61 -26
22z"/>
<path d="M2690 5925 c0 -8 2 -15 4 -15 2 0 6 7 10 15 3 8 1 15 -4 15 -6 0 -10
-7 -10 -15z"/>
<path d="M5764 5890 c3 -14 9 -42 12 -63 6 -35 25 -63 24 -35 -1 24 -26 107
-34 115 -5 4 -6 -3 -2 -17z"/>
<path d="M6230 5530 c0 -11 7 -20 15 -20 8 0 15 6 15 14 0 8 -7 16 -15 20 -10
4 -15 -1 -15 -14z"/>
<path d="M6236 5415 c3 -8 2 -20 -3 -27 -4 -7 -8 -31 -9 -53 0 -44 -12 -166
-19 -205 -3 -14 -7 -56 -10 -95 -6 -74 -10 -106 -19 -152 -3 -15 -8 -55 -11
-88 -3 -33 -7 -76 -10 -95 -6 -43 11 -78 19 -39 12 51 46 251 71 414 14 94 30
192 36 218 15 76 12 104 -13 121 -28 20 -39 20 -32 1z"/>
<path d="M7345 5290 c-4 -17 -5 -34 -2 -36 2 -3 7 10 11 27 3 18 4 34 2 36 -2
3 -7 -10 -11 -27z"/>
<path d="M7332 5210 c0 -14 2 -19 5 -12 2 6 2 18 0 25 -3 6 -5 1 -5 -13z"/>
<path d="M3220 5101 c0 -6 5 -13 11 -17 18 -11 49 -94 49 -133 0 -48 -25 -74
-89 -96 -28 -9 -53 -21 -56 -26 -10 -15 142 -69 195 -69 33 0 16 13 -33 27
-40 10 -36 11 56 12 119 1 125 9 73 85 -35 49 -37 56 -30 104 l6 50 -42 22
c-33 17 -122 49 -137 50 -2 0 -3 -4 -3 -9z"/>
<path d="M5771 4774 c0 -11 3 -14 6 -6 3 7 2 16 -1 19 -3 4 -6 -2 -5 -13z"/>
<path d="M5789 4724 c-7 -16 -18 -42 -25 -59 -55 -130 -105 -258 -101 -262 8
-7 113 216 132 280 19 60 14 90 -6 41z"/>
<path d="M5318 3950 c-33 -34 -38 -52 -7 -24 18 16 45 55 37 54 -2 -1 -15 -14
-30 -30z"/>
<path d="M5241 3875 c-13 -14 -22 -28 -19 -30 2 -3 17 9 33 25 16 17 25 30 19
30 -5 0 -20 -12 -33 -25z"/>
<path d="M5147 3793 c-4 -3 -7 -11 -7 -17 0 -6 5 -5 12 2 6 6 9 14 7 17 -3 3
-9 2 -12 -2z"/>
<path d="M5053 3717 c-28 -23 -55 -46 -60 -51 -14 -16 20 6 67 42 62 49 66 52
55 51 -6 0 -33 -19 -62 -42z"/>
<path d="M4950 3640 l-25 -21 28 12 c15 7 27 16 27 21 0 11 -1 10 -30 -12z"/>
<path d="M4894 3605 c-10 -8 -14 -15 -8 -15 6 0 17 7 24 15 16 19 9 19 -16 0z"/>
<path d="M4792 3548 c-34 -18 -60 -34 -58 -35 4 -5 126 56 126 63 0 7 -4 5
-68 -28z"/>
<path d="M4680 3490 c-18 -12 -2 -12 25 0 13 6 15 9 5 9 -8 0 -22 -4 -30 -9z"/>
<path d="M10295 3401 c-3 -5 1 -16 10 -24 11 -12 24 -13 57 -6 68 15 76 20 53
29 -28 12 -113 12 -120 1z"/>
<path d="M4108 3293 c6 -2 18 -2 25 0 6 3 1 5 -13 5 -14 0 -19 -2 -12 -5z"/>
<path d="M7980 3293 c-58 -2 -108 -7 -113 -12 -4 -4 -12 -48 -17 -97 -15 -133
-15 -134 -53 -135 -29 0 -30 -1 -9 -9 23 -10 25 -18 22 -85 -2 -46 -45 -367
-89 -665 -17 -113 -31 -215 -31 -227 0 -23 0 -23 169 -23 l169 0 6 28 c2 15 7
54 11 87 6 58 29 155 44 184 4 8 20 18 35 22 16 4 36 15 46 24 24 22 29 14 85
-150 26 -77 54 -152 62 -167 l14 -28 162 0 c109 0 167 4 174 11 9 9 5 28 -14
78 -84 219 -183 496 -183 511 0 10 -7 20 -16 22 -10 2 -3 12 24 33 60 46 282
262 282 274 0 7 -48 11 -150 11 l-149 0 -163 -155 c-90 -85 -166 -155 -169
-155 -6 0 11 161 41 375 36 261 36 241 9 248 -13 4 -40 6 -59 5 -19 -1 -82 -4
-140 -5z"/>
<path d="M10190 3293 c-52 -2 -105 -5 -116 -8 -25 -6 -39 -51 -50 -160 -11
-111 -14 -115 -79 -115 -48 0 -57 -3 -64 -22 -11 -31 -32 -209 -25 -219 3 -5
26 -9 52 -9 71 0 71 -2 57 -105 -44 -312 -49 -367 -37 -424 20 -96 86 -168
176 -192 43 -12 268 -8 298 5 21 10 32 41 29 84 -4 46 9 113 20 106 5 -3 9 9
9 25 l0 31 -69 0 c-63 0 -71 2 -90 26 -12 16 -21 21 -21 13 -1 -10 -4 -9 -11
3 -14 24 13 312 31 323 9 6 1 -92 -16 -195 -16 -100 -17 -110 -5 -110 5 0 12
24 15 53 4 28 13 95 21 147 8 52 17 116 20 142 3 25 12 52 20 58 8 7 40 14 72
17 l58 5 -3 57 c-2 31 1 83 6 116 6 33 9 61 8 62 0 0 -35 3 -76 5 l-75 5 3 49
c2 27 10 87 18 134 7 47 14 88 14 93 0 4 -21 6 -47 5 -27 -1 -91 -3 -143 -5z
m130 -555 c0 -18 -2 -20 -9 -8 -6 8 -7 18 -5 22 9 14 14 9 14 -14z"/>
<path d="M4480 3151 l-115 -26 89 -3 c69 -2 92 1 106 13 9 8 30 15 47 15 44 0
93 11 93 21 0 16 -104 7 -220 -20z"/>
<path d="M1075 3086 c-100 -25 -162 -75 -208 -170 -40 -82 -51 -144 -37 -213
7 -32 18 -70 26 -84 17 -34 98 -105 147 -130 47 -25 105 -83 123 -126 9 -22
21 -33 34 -33 24 0 27 -25 4 -34 -48 -18 -125 8 -148 51 -19 38 -59 40 -190 7
-54 -13 -101 -24 -102 -24 -2 0 -4 -9 -4 -20 0 -54 73 -162 133 -198 58 -34
131 -53 223 -59 95 -6 91 -7 219 52 66 30 129 96 165 170 27 53 29 68 26 133
-3 52 -1 72 8 69 18 -6 11 -166 -10 -223 -17 -44 -58 -94 -111 -133 -61 -45
-64 -54 -5 -17 55 34 100 90 133 164 24 53 29 77 29 142 0 47 -6 92 -15 114
-20 47 -84 118 -101 112 -8 -3 -18 3 -24 14 -6 11 -53 36 -119 61 -99 38 -109
44 -120 76 -18 48 5 83 55 83 51 0 74 -15 74 -50 0 -47 59 -78 84 -45 6 9 54
30 105 48 52 18 96 38 99 45 2 8 -5 11 -19 10 -18 -3 -24 3 -30 30 -4 18 -22
52 -40 74 -18 23 -27 38 -21 34 7 -4 12 -5 12 -3 0 13 -83 51 -149 68 -84 21
-172 23 -246 5z m56 -313 c13 -16 12 -17 -3 -4 -10 7 -18 15 -18 17 0 8 8 3
21 -13z"/>
<path d="M4165 3070 c-111 -21 -225 -30 -485 -36 -157 -4 -294 -8 -305 -9 -55
-6 -56 -8 -10 -15 74 -12 253 -12 260 0 9 14 140 12 350 -5 202 -17 353 -19
374 -6 15 10 7 31 -12 31 -7 0 -29 9 -50 19 -50 26 -75 30 -122 21z"/>
<path d="M9154 2995 c-114 -25 -205 -86 -280 -187 -88 -120 -118 -217 -112
-361 4 -88 9 -111 35 -169 57 -123 173 -217 303 -247 67 -15 194 -13 264 5 67
17 167 68 225 115 37 29 148 166 140 173 -6 5 -273 46 -302 46 -17 0 -28 -7
-32 -19 -10 -31 -71 -79 -110 -87 -59 -11 -98 7 -138 66 -26 37 -22 75 11 96
25 17 51 19 307 19 154 0 288 4 298 9 37 17 15 233 -33 326 -51 97 -165 186
-275 215 -72 18 -217 18 -301 0z m216 -223 c28 -28 51 -114 35 -130 -10 -11
-226 -15 -236 -5 -13 13 37 108 69 130 59 40 95 41 132 5z"/>
<path d="M9355 2710 c3 -5 10 -10 16 -10 5 0 9 5 9 10 0 6 -7 10 -16 10 -8 0
-12 -4 -9 -10z"/>
<path d="M7587 2976 c-32 -9 -63 -27 -91 -55 -23 -22 -44 -41 -47 -41 -3 0 -3
16 -1 35 3 29 1 35 -14 35 -206 4 -304 4 -304 0 0 -9 -20 -134 -26 -162 -3
-18 -12 -28 -23 -28 -14 0 -17 -11 -19 -62 -2 -72 -15 -175 -43 -337 -27 -152
-36 -305 -19 -316 10 -6 93 -8 337 -5 18 0 23 7 27 43 39 327 75 486 117 528
11 11 19 22 19 27 0 4 43 10 96 14 53 4 98 8 99 10 7 7 36 261 33 290 -3 32
-5 33 -48 35 -25 1 -67 -4 -93 -11z"/>
<path d="M6439 2961 c-158 -18 -253 -70 -340 -187 l-39 -53 9 -83 c7 -61 6
-85 -2 -90 -7 -4 -8 -8 -3 -8 17 0 136 71 132 79 -3 4 -25 15 -48 24 -24 9
-49 26 -56 38 -14 22 -13 22 40 15 29 -4 90 -18 136 -32 46 -14 91 -23 100
-20 9 3 25 19 34 36 19 34 73 70 104 70 11 0 28 -8 37 -18 21 -23 23 -88 2
-96 -8 -3 -68 -12 -132 -21 -159 -21 -208 -33 -273 -65 -86 -44 -136 -100
-164 -184 -32 -99 -16 -182 52 -258 63 -70 104 -88 197 -88 77 0 112 11 179
55 l29 19 -12 -22 c-16 -29 0 -28 33 3 35 32 42 31 50 -5 l6 -30 180 0 180 0
0 69 c0 39 16 176 35 305 40 272 43 332 16 384 -23 43 -83 104 -126 124 -71
35 -232 53 -356 39z m81 -539 c0 -15 -8 -32 -17 -38 -10 -6 -26 -26 -36 -43
-16 -27 -16 -31 -3 -31 25 0 19 -26 -10 -49 -30 -23 -74 -27 -92 -9 -17 17
-15 74 3 112 16 32 55 62 103 76 45 14 52 11 52 -18z"/>
<path d="M5589 2941 c-44 -14 -73 -32 -111 -68 l-36 -35 -26 18 c-14 11 -26
22 -26 27 0 4 -7 7 -15 7 -8 0 -15 4 -15 9 0 22 -89 43 -163 40 -61 -4 -81 -9
-117 -33 -39 -26 -45 -27 -55 -12 -10 14 -35 16 -163 16 l-150 0 -6 -27 c-3
-16 -15 -86 -26 -158 -22 -137 -29 -178 -53 -315 -36 -195 -52 -320 -48 -367
1 -10 41 -13 165 -13 148 0 165 2 170 18 4 16 19 110 66 411 11 73 29 153 39
176 21 48 54 66 78 42 13 -13 11 -37 -16 -203 -38 -233 -61 -413 -54 -431 4
-10 40 -13 162 -13 86 0 162 4 169 9 8 5 20 47 27 97 69 461 95 554 150 554
34 0 38 -24 20 -136 -62 -402 -72 -503 -54 -515 16 -10 268 -10 313 0 22 4 32
14 37 36 15 60 80 559 81 624 2 113 -43 182 -147 226 -46 19 -158 28 -196 16z"/>
<path d="M3908 2910 c78 -28 109 -53 117 -97 4 -21 10 -42 13 -48 15 -25 16
-287 1 -338 -9 -28 -28 -159 -45 -302 l-6 -50 77 3 c90 4 94 10 10 14 -59 3
-60 3 -60 33 0 22 4 29 15 26 8 -2 24 -3 35 -2 11 1 41 2 68 2 26 1 47 6 47
11 0 6 7 8 15 4 8 -3 15 -2 15 3 0 5 8 11 18 13 12 3 18 16 20 39 1 18 8 36
14 40 16 10 28 119 14 119 -6 0 -5 4 3 9 8 5 11 16 7 26 -3 9 1 23 9 31 18 18
20 44 3 44 -6 0 -4 6 5 13 10 6 19 30 21 52 2 22 5 42 5 45 1 3 6 -2 12 -10 9
-12 10 -11 6 7 -4 19 1 25 34 34 21 7 39 18 39 25 0 11 7 19 76 81 17 15 29
33 27 40 -2 6 3 28 11 48 l16 37 -41 -7 c-33 -6 -40 -4 -37 6 3 8 23 17 46 20
56 7 65 19 13 17 -46 -1 -126 -48 -83 -48 27 0 28 -16 2 -30 -16 -9 -20 -8
-20 6 0 11 -5 14 -16 10 -9 -3 -18 -6 -20 -6 -2 0 -4 -10 -5 -22 -1 -13 -6 -3
-11 20 l-10 44 -17 -34 c-20 -37 -36 -102 -32 -133 1 -11 12 -27 23 -36 11 -9
18 -22 15 -30 -4 -10 -6 -9 -6 4 -1 15 -6 17 -30 12 -27 -6 -29 -4 -35 30 -4
19 -4 40 0 46 4 6 0 15 -7 20 -11 7 -11 9 2 9 10 0 19 11 22 28 3 15 7 37 10
49 7 29 -8 33 -105 28 -75 -3 -78 -2 -78 20 0 21 -6 23 -100 34 -56 6 -117 11
-138 10 l-37 0 53 -19z m257 -70 c3 -5 -1 -10 -10 -10 -9 0 -14 -4 -11 -9 3
-5 0 -21 -8 -35 -10 -21 -15 -23 -19 -12 -4 9 -2 18 3 21 6 4 10 17 10 31 0
24 23 34 35 14z m254 -72 c0 -26 -17 -70 -18 -50 -1 9 -8 11 -21 7 -14 -5 -20
-2 -20 9 0 18 34 56 50 56 6 0 10 -10 9 -22z m-294 -38 c3 -5 1 -10 -4 -10 -6
0 -11 5 -11 10 0 6 2 10 4 10 3 0 8 -4 11 -10z m-5 -39 c0 -6 -4 -13 -10 -16
-5 -3 -10 1 -10 9 0 9 5 16 10 16 6 0 10 -4 10 -9z"/>
<path d="M8815 2839 c-49 -46 -100 -94 -114 -107 -13 -12 -21 -25 -18 -28 8
-8 44 15 82 53 17 17 37 34 46 39 28 16 101 103 97 115 -2 7 -44 -26 -93 -72z"/>
<path d="M3167 2869 l52 -30 -3 -82 c-2 -47 -15 -129 -31 -192 -22 -88 -26
-124 -22 -180 9 -119 61 -218 145 -280 59 -43 106 -53 207 -46 70 5 77 7 58
19 -12 6 -30 12 -40 13 -10 0 -5 5 12 10 17 5 38 6 49 3 13 -4 16 -3 11 7 -6
9 -4 11 8 6 9 -3 19 -2 22 3 6 10 33 9 50 -2 15 -9 48 18 39 33 -5 9 -2 10 9
6 10 -4 27 3 43 18 14 13 29 25 32 27 17 7 72 88 61 88 -7 0 -9 3 -5 7 4 5 14
0 21 -11 15 -19 35 -14 35 10 0 9 -11 14 -34 14 -18 0 -49 2 -67 5 l-34 5 35
-14 c31 -13 32 -14 10 -15 -32 0 -62 12 -61 24 1 6 -21 10 -47 11 -33 0 -47 5
-47 15 0 8 -13 15 -32 17 -24 2 -34 -2 -43 -18 -9 -18 -8 -24 6 -34 25 -19 11
-42 -31 -50 -51 -10 -73 0 -95 44 -25 49 -26 87 -2 94 9 3 116 8 237 11 125 3
224 10 230 16 17 17 10 194 -10 244 -9 25 -21 45 -27 45 -6 0 -7 -7 -3 -17 33
-80 50 -232 28 -254 -6 -6 -26 -8 -47 -4 -38 8 -50 25 -17 25 25 0 36 65 26
153 -8 71 -30 113 -93 175 -34 32 -40 42 -25 43 16 0 16 1 -2 8 -125 50 -260
52 -368 6 -13 -5 -16 -3 -12 8 7 17 -11 21 -150 37 -133 15 -137 14 -78 -21z
m211 -34 c2 -2 -5 -8 -15 -13 -24 -12 -112 6 -92 19 12 8 97 3 107 -6z m226
-124 c4 -5 0 -12 -6 -14 -7 -3 -1 -6 14 -6 34 -1 41 -13 23 -37 -21 -28 -18
-41 10 -48 42 -11 30 -33 -21 -40 -68 -9 -122 -7 -129 4 -9 15 32 88 60 106
14 9 25 23 25 30 0 16 16 19 24 5z m-134 -111 c-7 -16 -16 -27 -21 -25 -9 6
-2 32 14 53 16 21 21 5 7 -28z m-30 -221 c0 -44 11 -72 43 -106 20 -23 20 -23
0 -23 -45 0 -97 106 -73 150 17 32 30 23 30 -21z"/>
<path d="M4600 2883 c0 -6 -6 -48 -14 -94 -25 -148 -27 -169 -16 -169 5 0 12
10 15 23 8 40 25 240 20 245 -3 3 -5 1 -5 -5z"/>
<path d="M2753 2857 c-10 -6 -26 -18 -36 -29 -18 -18 -19 -18 -37 4 -17 21
-19 21 -25 6 -4 -10 -11 -18 -17 -18 -5 0 -6 5 -3 10 4 7 -33 10 -109 9 l-115
-1 -6 -46 c-3 -26 -12 -65 -20 -87 -7 -22 -16 -69 -20 -105 -3 -36 -12 -87
-20 -115 -7 -27 -16 -75 -19 -105 -3 -30 -10 -68 -15 -85 -5 -16 -15 -75 -22
-130 -6 -55 -14 -111 -16 -125 -3 -14 -8 -64 -11 -112 -6 -72 -4 -90 8 -100
16 -14 186 -18 206 -5 7 4 14 24 17 44 18 137 39 249 47 257 7 7 10 -17 11
-70 l1 -79 11 55 c10 45 16 56 34 58 22 3 26 -4 35 -63 2 -14 12 -21 33 -23
l30 -4 -23 25 -23 24 60 6 c59 7 136 41 125 58 -3 5 1 6 9 3 42 -16 151 150
177 267 18 79 9 313 -12 357 -9 17 -12 34 -8 37 12 8 44 -58 61 -123 18 -74 0
-277 -32 -353 -36 -85 -87 -161 -130 -193 -21 -16 -37 -32 -34 -34 13 -13 103
81 137 144 65 120 81 183 81 319 1 148 -21 216 -90 283 -44 43 -81 57 -69 26
5 -13 -1 -12 -30 5 -37 22 -106 26 -141 8z m-123 -109 c-1 -26 -3 -30 -10 -16
-6 9 -7 23 -4 32 9 25 14 19 14 -16z m120 -88 c18 -11 20 -151 2 -173 -6 -7
-14 -29 -16 -48 -30 -212 -59 -257 -104 -164 l-22 45 25 127 c29 147 39 180
62 205 18 20 31 22 53 8z m-142 -187 c-5 -32 -13 -71 -18 -87 -5 -16 -7 -46
-4 -67 4 -25 3 -39 -4 -39 -14 0 -10 88 8 187 15 85 31 90 18 6z m6 -229 c3
-8 2 -12 -4 -9 -6 3 -10 10 -10 16 0 14 7 11 14 -7z"/>
<path d="M9811 2834 c0 -11 3 -14 6 -6 3 7 2 16 -1 19 -3 4 -6 -2 -5 -13z"/>
<path d="M2062 2823 c-16 -31 -41 -135 -52 -211 -14 -104 -57 -270 -78 -306
-38 -65 -84 -32 -62 44 16 56 80 437 80 477 0 2 -4 3 -10 3 -5 0 -10 -11 -10
-25 0 -13 -4 -34 -9 -47 -6 -13 -15 -56 -22 -96 -6 -40 -14 -70 -17 -67 -9 9
-2 139 8 145 4 3 7 23 6 45 l-1 40 -109 3 c-84 2 -112 -1 -125 -12 -9 -8 -38
-24 -66 -36 -27 -12 -58 -28 -67 -37 -16 -14 -15 -18 11 -52 16 -20 38 -61 49
-91 19 -47 20 -63 12 -115 -5 -33 -12 -78 -15 -100 -3 -22 -11 -68 -17 -103
-15 -88 1 -139 59 -193 l44 -41 62 7 c72 8 101 22 141 64 17 17 33 31 38 31
15 0 8 -27 -14 -56 l-23 -29 28 18 c25 16 30 17 40 3 14 -17 30 -19 145 -17
56 1 84 5 87 14 21 60 28 71 33 53 2 -10 0 -21 -5 -25 -5 -3 -12 -14 -16 -24
-5 -14 -3 -18 11 -15 17 3 30 47 52 178 5 30 22 138 39 240 17 102 35 207 41
233 5 27 10 65 9 85 0 33 -1 34 -8 12 -12 -36 -27 -108 -53 -245 -26 -137 -38
-108 -15 36 8 48 13 101 12 118 -1 17 2 31 7 31 5 0 8 17 6 38 l-3 37 -107 3
c-94 2 -108 1 -116 -15z m-202 -387 c0 -3 -4 -8 -10 -11 -5 -3 -10 -1 -10 4 0
6 5 11 10 11 6 0 10 -2 10 -4z"/>
<path d="M3836 2785 c22 -19 44 -35 49 -34 6 0 -7 15 -27 34 -21 19 -43 35
-49 35 -6 0 6 -16 27 -35z"/>
<path d="M9897 2672 c-8 -11 5 -144 13 -135 7 9 30 106 30 129 0 14 -35 20
-43 6z"/>
<path d="M4430 2646 c0 -2 7 -7 16 -10 8 -3 12 -2 9 4 -6 10 -25 14 -25 6z"/>
<path d="M8651 2641 c-18 -12 -23 -77 -9 -121 33 -103 113 -308 119 -304 4 2
10 -4 13 -14 4 -10 20 -32 37 -48 l30 -29 -11 30 c-6 16 -15 34 -19 40 -4 5
-18 37 -31 70 -13 33 -29 67 -36 75 -22 27 -44 92 -44 129 0 27 -7 44 -25 61
-33 31 -32 36 10 56 39 18 39 18 25 45 -11 20 -36 24 -59 10z"/>
<path d="M4402 2577 c-33 -19 -51 -49 -57 -98 -5 -46 -1 -44 9 4 4 15 23 45
42 67 40 44 40 45 6 27z"/>
<path d="M7703 2553 c9 -2 25 -2 35 0 9 3 1 5 -18 5 -19 0 -27 -2 -17 -5z"/>
<path d="M4331 2404 c0 -11 3 -14 6 -6 3 7 2 16 -1 19 -3 4 -6 -2 -5 -13z"/>
<path d="M9866 2377 c-15 -11 -17 -19 -9 -42 15 -47 33 -43 33 9 0 25 -1 46
-3 46 -2 0 -11 -6 -21 -13z"/>
<path d="M9285 2356 c-17 -12 -17 -13 9 -20 25 -6 76 14 76 29 0 11 -68 4 -85
-9z"/>
<path d="M3890 2250 c0 -6 -32 -42 -70 -81 -39 -38 -62 -65 -52 -60 43 23 151
151 127 151 -3 0 -5 -5 -5 -10z"/>
<path d="M4230 2159 c0 -5 5 -7 10 -4 6 3 10 8 10 11 0 2 -4 4 -10 4 -5 0 -10
-5 -10 -11z"/>
<path d="M3655 2100 c-3 -5 -1 -10 4 -10 6 0 11 5 11 10 0 6 -2 10 -4 10 -3 0
-8 -4 -11 -10z"/>
<path d="M4188 2083 c7 -3 16 -2 19 1 4 3 -2 6 -13 5 -11 0 -14 -3 -6 -6z"/>
<path d="M2542 1940 c0 -19 2 -27 5 -17 2 9 2 25 0 35 -3 9 -5 1 -5 -18z"/>
<path d="M2525 1870 c-4 -17 -5 -34 -2 -36 2 -3 7 10 11 27 3 18 4 34 2 36 -2
3 -7 -10 -11 -27z"/>
</g>
</svg>
